<?xml version="1.0" encoding="iso-8859-1"?>
<!-- Uploaded to: SVG Repo, www.svgrepo.com, Generator: SVG Repo Mixer Tools -->
<svg fill="#000000" height="800px" width="800px" version="1.1" id="Layer_1" xmlns="http://www.w3.org/2000/svg" xmlns:xlink="http://www.w3.org/1999/xlink" 
	 viewBox="0 0 511.977 511.977" xml:space="preserve">
<g>
	<g>
		<g>
			<path d="M412.174,128.308c-1.681-1.681-3.925-2.62-6.298-2.62c-2.389,0-4.617,0.939-6.298,2.62l-7.757,7.74
				c-3.473,3.473-3.473,9.131,0,12.604l27.196,27.187c3.49,3.482,9.131,3.465,12.604,0l7.748-7.74c3.473-3.473,3.473-9.122,0-12.595
				L412.174,128.308z"/>
			<path d="M496.182,123.871L444.06,71.75c-21.069-21.069-55.347-21.052-76.373,0L263.7,175.728c-21.06,21.06-21.06,55.322,0,76.382
				l52.122,52.113c10.53,10.53,24.363,15.795,38.195,15.795c13.824,0,27.656-5.274,38.187-15.795l103.979-103.97
				C517.242,179.193,517.242,144.931,496.182,123.871z M451.433,180.166l-7.74,7.74c-4.907,4.907-11.435,7.62-18.381,7.62
				c-6.929,0-13.457-2.714-18.364-7.62l-27.187-27.187c-4.915-4.907-7.612-11.426-7.612-18.372c0-6.938,2.697-13.466,7.612-18.364
				l7.748-7.74c9.796-9.822,26.914-9.822,36.727,0l27.196,27.187c4.907,4.907,7.612,11.426,7.612,18.372
				C459.045,168.739,456.34,175.267,451.433,180.166z"/>
			<path d="M264.392,264.383c-1.63-1.63-3.917-2.458-6.178-2.5c-2.313,0.043-4.506,1.015-6.084,2.705l-40.576,44.629
				c-1.877,2.005-2.679,4.796-2.133,7.501l3.968,19.866l-19.866-3.977c-2.799-0.538-5.692,0.316-7.706,2.338l-49.698,49.698
				c-2.022,2.014-2.893,4.907-2.338,7.706l1.809,9.054l-9.054-1.809c-2.799-0.555-5.692,0.316-7.714,2.33l-4.096,4.105
				c-18.202,18.202-31.13,41.02-37.367,65.997c-1.587,6.332,0.222,12.877,4.838,17.493c3.524,3.516,8.149,5.41,12.971,5.41
				c1.502,0,3.021-0.188,4.531-0.572c24.969-6.238,47.787-19.166,65.997-37.367l36.514-36.514c2.014-2.014,2.893-4.907,2.33-7.706
				l-1.809-9.054l9.054,1.809c2.867,0.546,5.811-0.35,7.825-2.449l83.797-87.851c3.226-3.354,3.166-8.67-0.111-11.947
				L264.392,264.383z"/>
			<path d="M264.533,34.116c4.719,0,8.533-3.814,8.533-8.533s-3.814-8.533-8.533-8.533C116.198,17.049,0,136.994,0,290.116
				c0,4.719,3.814,8.533,8.533,8.533s8.533-3.814,8.533-8.533C17.067,146.568,125.764,34.116,264.533,34.116z"/>
			<path d="M264.533,76.783c4.719,0,8.533-3.814,8.533-8.533s-3.814-8.533-8.533-8.533c-124.407,0-221.867,101.197-221.867,230.4
				c0,4.719,3.814,8.533,8.533,8.533s8.533-3.814,8.533-8.533C59.733,170.487,149.692,76.783,264.533,76.783z"/>
			<path d="M264.533,102.382c-98.807,0-179.2,84.216-179.2,187.733c0,4.719,3.814,8.533,8.533,8.533s8.533-3.814,8.533-8.533
				c0-94.106,72.73-170.667,162.133-170.667c4.719,0,8.533-3.814,8.533-8.533C273.067,106.197,269.252,102.382,264.533,102.382z"/>
		</g>
	</g>
</g>
</svg>